<?xml version="1.0" encoding="utf-8"?><svg version="1.1" viewBox="0.0 0.0 960.0 720.0" fill="none" stroke="none" stroke-linecap="square" stroke-miterlimit="10" xmlns:xlink="http://www.w3.org/1999/xlink" xmlns="http://www.w3.org/2000/svg"><clipPath id="p.0"><path d="m0 0l960.0 0l0 720.0l-960.0 0l0 -720.0z" clip-rule="nonzero"/></clipPath><g clip-path="url(#p.0)"><path fill="#000000" fill-opacity="0.0" d="m0 0l960.0 0l0 720.0l-960.0 0z" fill-rule="evenodd"/><path fill="#ffa1d5" d="m200.02263 360.6582l0 0c0 -150.56935 125.58589 -272.6299 280.5039 -272.6299l0 0c74.39429 0 145.74158 28.723427 198.34625 79.85145c52.604675 51.128036 82.157715 120.472534 82.157715 192.77847l0 0c0 150.56934 -125.58594 272.62994 -280.50397 272.62994l0 0c-154.91803 0 -280.5039 -122.06061 -280.5039 -272.62994z" fill-rule="evenodd"/><path fill="#8db600" d="m200.02263 360.52655l0 0c0 -154.91803 125.58589 -280.5039 280.5039 -280.5039l0 0c74.39429 0 145.74158 29.553009 198.34625 82.1577c52.604675 52.60469 82.157715 123.951965 82.157715 198.34622l0 0c0 154.91803 -125.58594 280.50397 -280.50397 280.50397l0 0c-154.91803 0 -280.5039 -125.58594 -280.5039 -280.50397z" fill-rule="evenodd"/><path fill="#274e13" d="m210.03822 335.56158l11.786606 0l0 53.349762l-11.786606 0z" fill-rule="evenodd"/><path fill="#274e13" d="m226.04784 327.7936l11.786591 0l0 68.88571l-11.786591 0z" fill-rule="evenodd"/><path fill="#274e13" d="m242.05743 316.0684l11.786591 0l0 92.33615l-11.786591 0z" fill-rule="evenodd"/><path fill="#274e13" d="m258.06702 294.32785l11.786621 0l0 135.81723l-11.786621 0z" fill-rule="evenodd"/><path fill="#274e13" d="m274.07663 273.36902l11.786591 0l0 177.7349l-11.786591 0z" fill-rule="evenodd"/><path fill="#274e13" d="m290.08624 255.53688l11.786591 0l0 213.39915l-11.786591 0z" fill-rule="evenodd"/><path fill="#274e13" d="m306.09583 279.5736l11.786591 0l0 165.32571l-11.786591 0z" fill-rule="evenodd"/><path fill="#274e13" d="m322.10544 294.32785l11.786591 0l0 135.81723l-11.786591 0z" fill-rule="evenodd"/><path fill="#274e13" d="m338.11502 316.0684l11.786591 0l0 92.33615l-11.786591 0z" fill-rule="evenodd"/><path fill="#274e13" d="m354.12463 305.95538l11.786591 0l0 112.562164l-11.786591 0z" fill-rule="evenodd"/><path fill="#274e13" d="m370.13422 287.34158l11.786621 0l0 149.78976l-11.786621 0z" fill-rule="evenodd"/><path fill="#274e13" d="m386.14383 279.5736l11.786591 0l0 165.32571l-11.786591 0z" fill-rule="evenodd"/><path fill="#274e13" d="m402.15344 287.34158l11.786591 0l0 149.78976l-11.786591 0z" fill-rule="evenodd"/><path fill="#274e13" d="m418.16302 305.95538l11.786591 0l0 112.562164l-11.786591 0z" fill-rule="evenodd"/><path fill="#274e13" d="m434.17264 316.0684l11.786591 0l0 92.33615l-11.786591 0z" fill-rule="evenodd"/><path fill="#274e13" d="m450.18222 335.56158l11.786591 0l0 53.349762l-11.786591 0z" fill-rule="evenodd"/><path fill="#274e13" d="m466.19183 343.96466l11.786591 0l0 36.54361l-11.786591 0z" fill-rule="evenodd"/><path fill="#274e13" d="m482.20142 332.33713l11.786621 0l0 59.798676l-11.786621 0z" fill-rule="evenodd"/><path fill="#274e13" d="m498.21103 323.0058l11.786591 0l0 78.461334l-11.786591 0z" fill-rule="evenodd"/><path fill="#274e13" d="m514.22064 312.15997l11.78656 0l0 100.152985l-11.78656 0z" fill-rule="evenodd"/><path fill="#274e13" d="m530.2302 294.32785l11.786621 0l0 135.81723l-11.786621 0z" fill-rule="evenodd"/><path fill="#274e13" d="m546.2398 268.72778l11.786621 0l0 187.01736l-11.786621 0z" fill-rule="evenodd"/><path fill="#274e13" d="m562.24945 247.81778l11.78656 0l0 228.83737l-11.78656 0z" fill-rule="evenodd"/><path fill="#274e13" d="m578.25903 219.87265l11.786621 0l0 284.72763l-11.786621 0z" fill-rule="evenodd"/><path fill="#274e13" d="m594.2686 244.30022l11.786621 0l0 235.87251l-11.786621 0z" fill-rule="evenodd"/><path fill="#274e13" d="m610.27826 255.53688l11.78656 0l0 213.39915l-11.78656 0z" fill-rule="evenodd"/><path fill="#274e13" d="m626.28784 273.36902l11.78656 0l0 177.7349l-11.78656 0z" fill-rule="evenodd"/><path fill="#274e13" d="m642.2974 294.32785l11.786621 0l0 135.81723l-11.786621 0z" fill-rule="evenodd"/><path fill="#274e13" d="m658.307 312.15997l11.786621 0l0 100.152985l-11.786621 0z" fill-rule="evenodd"/><path fill="#274e13" d="m674.31665 323.0058l11.78656 0l0 78.461334l-11.78656 0z" fill-rule="evenodd"/><path fill="#274e13" d="m690.32623 312.15997l11.786621 0l0 100.152985l-11.786621 0z" fill-rule="evenodd"/><path fill="#274e13" d="m706.3358 332.33713l11.786621 0l0 59.798676l-11.786621 0z" fill-rule="evenodd"/><path fill="#274e13" d="m722.34546 343.96466l11.78656 0l0 36.54361l-11.78656 0z" fill-rule="evenodd"/><path fill="#274e13" d="m738.35504 352.51428l11.78656 0l0 19.444336l-11.78656 0z" fill-rule="evenodd"/></g></svg>