<?xml version="1.0" encoding="UTF-8" standalone="no"?>
<!-- Generator: Adobe Illustrator 16.0.0, SVG Export Plug-In . SVG Version: 6.00 Build 0)  -->

<svg
   version="1.1"
   id="Capa_1"
   x="0px"
   y="0px"
   width="60"
   height="60"
   viewBox="0 0 60 60"
   xml:space="preserve"
   sodipodi:docname="pause.svg"
   inkscape:version="1.1.2 (b8e25be833, 2022-02-05)"
   xmlns:inkscape="http://www.inkscape.org/namespaces/inkscape"
   xmlns:sodipodi="http://sodipodi.sourceforge.net/DTD/sodipodi-0.dtd"
   xmlns="http://www.w3.org/2000/svg"
   xmlns:svg="http://www.w3.org/2000/svg"
   xmlns:rdf="http://www.w3.org/1999/02/22-rdf-syntax-ns#"
   xmlns:cc="http://creativecommons.org/ns#"
   xmlns:dc="http://purl.org/dc/elements/1.1/"><metadata
   id="metadata4731"><rdf:RDF><cc:Work
       rdf:about=""><dc:format>image/svg+xml</dc:format><dc:type
         rdf:resource="http://purl.org/dc/dcmitype/StillImage" /></cc:Work></rdf:RDF></metadata><defs
   id="defs4729" /><sodipodi:namedview
   pagecolor="#ffffff"
   bordercolor="#666666"
   borderopacity="1"
   objecttolerance="10"
   gridtolerance="10"
   guidetolerance="10"
   inkscape:pageopacity="0"
   inkscape:pageshadow="2"
   inkscape:window-width="1391"
   inkscape:window-height="1337"
   id="namedview4727"
   showgrid="false"
   inkscape:zoom="10.746832"
   inkscape:cx="33.312142"
   inkscape:cy="39.91874"
   inkscape:window-x="1537"
   inkscape:window-y="71"
   inkscape:window-maximized="0"
   inkscape:current-layer="Capa_1"
   inkscape:pagecheckerboard="true"
   width="60px" />
















<path
   id="path25811"
   style="fill:#8db600;fill-opacity:1;stroke-width:1.72205"
   d="M 30 0 A 30 30 0 0 0 0 30 A 30 30 0 0 0 30 60 A 30 30 0 0 0 60 30 A 30 30 0 0 0 30 0 z M 20.841797 14 L 25.158203 14 C 26.732398 14 28 15.267602 28 16.841797 L 28 43.158203 C 28 44.732398 26.732398 46 25.158203 46 L 20.841797 46 C 19.267602 46 18 44.732398 18 43.158203 L 18 16.841797 C 18 15.267602 19.267602 14 20.841797 14 z M 34.841797 14 L 39.158203 14 C 40.732398 14 42 15.267602 42 16.841797 L 42 43.158203 C 42 44.732398 40.732398 46 39.158203 46 L 34.841797 46 C 33.267602 46 32 44.732398 32 43.158203 L 32 16.841797 C 32 15.267602 33.267602 14 34.841797 14 z " /></svg>
