<?xml version="1.0" encoding="UTF-8" standalone="no"?>
<!-- Created with Inkscape (http://www.inkscape.org/) -->

<svg
   xmlns:dc="http://purl.org/dc/elements/1.1/"
   xmlns:cc="http://creativecommons.org/ns#"
   xmlns:rdf="http://www.w3.org/1999/02/22-rdf-syntax-ns#"
   xmlns:svg="http://www.w3.org/2000/svg"
   xmlns="http://www.w3.org/2000/svg"
   xmlns:sodipodi="http://sodipodi.sourceforge.net/DTD/sodipodi-0.dtd"
   xmlns:inkscape="http://www.inkscape.org/namespaces/inkscape"
   width="79.748161mm"
   height="79.755486mm"
   viewBox="0 0 79.748161 79.755486"
   version="1.1"
   id="svg31"
   inkscape:version="0.92.4 (5da689c313, 2019-01-14)"
   sodipodi:docname="record-off.svg">
  <defs
     id="defs25" />
  <sodipodi:namedview
     id="base"
     pagecolor="#ffffff"
     bordercolor="#666666"
     borderopacity="1.0"
     inkscape:pageopacity="0.0"
     inkscape:pageshadow="2"
     inkscape:zoom="1.4"
     inkscape:cx="15.775479"
     inkscape:cy="114.54119"
     inkscape:document-units="mm"
     inkscape:current-layer="layer1"
     showgrid="false"
     inkscape:window-width="2404"
     inkscape:window-height="1416"
     inkscape:window-x="294"
     inkscape:window-y="285"
     inkscape:window-maximized="0" />
  <metadata
     id="metadata28">
    <rdf:RDF>
      <cc:Work
         rdf:about="">
        <dc:format>image/svg+xml</dc:format>
        <dc:type
           rdf:resource="http://purl.org/dc/dcmitype/StillImage" />
        <dc:title></dc:title>
      </cc:Work>
    </rdf:RDF>
  </metadata>
  <g
     inkscape:label="Layer 1"
     inkscape:groupmode="layer"
     id="layer1"
     transform="translate(-49.999999,-167.24451)">
    <path
       style="opacity:1;vector-effect:none;fill:#888888;fill-opacity:1;stroke-width:0.18898807;stroke-linecap:butt;stroke-linejoin:miter;stroke-miterlimit:4;stroke-dasharray:none;stroke-dashoffset:0;stroke-opacity:1"
       d="m 85.849587,246.80027 c -7.613121,-0.78137 -15.542107,-4.1019 -21.337818,-8.93595 -1.895422,-1.58091 -5.138819,-4.95665 -6.462575,-6.72625 -10.74221,-14.36026 -10.731296,-33.79208 0.02701,-48.10565 5.269714,-7.01116 13.180783,-12.3254 21.656919,-14.54797 6.304996,-1.65325 14.054409,-1.65325 20.359407,0 6.75407,1.77102 13.03934,5.41609 18.07402,10.48181 6.1288,6.16659 9.94535,13.79771 11.2544,22.50298 0.43456,2.88988 0.43665,8.39002 0.004,11.24479 -1.98644,13.11545 -10.01135,24.21663 -21.75893,30.10002 -6.63618,3.32352 -14.41877,4.74551 -21.816708,3.98622 z"
       id="path3738"
       inkscape:connector-curvature="0" />
    <circle
       style="opacity:0;fill:#424242;fill-opacity:0.94117647;stroke-width:0.26458332"
       id="path3740"
       cx="79.563988"
       cy="51.976933"
       r="30" />
    <circle
       style="opacity:1;fill:#424242;fill-opacity:1;stroke-width:0.26458332"
       id="path4549"
       cx="90"
       cy="207"
       r="20" />
  </g>
</svg>
