<?xml version="1.0" encoding="UTF-8" standalone="no"?>
<!-- Generator: Adobe Illustrator 19.0.0, SVG Export Plug-In . SVG Version: 6.00 Build 0)  -->

<svg
   xmlns:dc="http://purl.org/dc/elements/1.1/"
   xmlns:cc="http://creativecommons.org/ns#"
   xmlns:rdf="http://www.w3.org/1999/02/22-rdf-syntax-ns#"
   xmlns:svg="http://www.w3.org/2000/svg"
   xmlns="http://www.w3.org/2000/svg"
   xmlns:sodipodi="http://sodipodi.sourceforge.net/DTD/sodipodi-0.dtd"
   xmlns:inkscape="http://www.inkscape.org/namespaces/inkscape"
   version="1.1"
   id="Capa_1"
   x="0px"
   y="0px"
   viewBox="0 0 60 60"
   style="enable-background:new 0 0 60 60;"
   xml:space="preserve"
   sodipodi:docname="speaker-off.svg"
   inkscape:version="0.92.4 (5da689c313, 2019-01-14)"><metadata
   id="metadata39"><rdf:RDF><cc:Work
       rdf:about=""><dc:format>image/svg+xml</dc:format><dc:type
         rdf:resource="http://purl.org/dc/dcmitype/StillImage" /><dc:title></dc:title></cc:Work></rdf:RDF></metadata><defs
   id="defs37" /><sodipodi:namedview
   pagecolor="#ffffff"
   bordercolor="#666666"
   borderopacity="1"
   objecttolerance="10"
   gridtolerance="10"
   guidetolerance="10"
   inkscape:pageopacity="0"
   inkscape:pageshadow="2"
   inkscape:window-width="2712"
   inkscape:window-height="1646"
   id="namedview35"
   showgrid="false"
   inkscape:zoom="11.125147"
   inkscape:cx="11.547613"
   inkscape:cy="25.003849"
   inkscape:window-x="686"
   inkscape:window-y="245"
   inkscape:window-maximized="0"
   inkscape:current-layer="Capa_1" />
<path
   d="M30,0C13.458,0,0,13.458,0,30s13.458,30,30,30s30-13.458,30-30S46.542,0,30,0z M36,48.894C36,50.606,34.606,52,32.893,52  c-0.547,0-1.09-0.149-1.571-0.432c-0.063-0.037-0.121-0.081-0.174-0.131L17.906,39.109C17.756,39.037,17.593,39,17.427,39H9.104  C7.392,39,6,37.607,6,35.896V23.104C6,21.393,7.392,20,9.104,20h8.324c0.166,0,0.329-0.037,0.479-0.109L31.148,7.563  c0.053-0.05,0.112-0.094,0.174-0.131C31.803,7.149,32.346,7,32.893,7C34.606,7,36,8.394,36,10.106V48.894z M39,39  c-0.256,0-0.512-0.098-0.707-0.293c-0.391-0.391-0.391-1.023,0-1.414c4.297-4.297,4.297-11.289,0-15.586  c-0.391-0.391-0.391-1.023,0-1.414s1.023-0.391,1.414,0c5.077,5.077,5.077,13.337,0,18.414C39.512,38.902,39.256,39,39,39z   M43.248,42.749c-0.195,0.195-0.451,0.293-0.707,0.293s-0.512-0.098-0.707-0.293c-0.391-0.391-0.391-1.023,0-1.414  c6.238-6.238,6.238-16.39,0-22.628c-0.391-0.391-0.391-1.023,0-1.414s1.023-0.391,1.414,0C50.266,24.312,50.266,35.73,43.248,42.749  z"
   id="path2"
   style="fill:#888888;fill-opacity:1;opacity:1" />
<g
   id="g4">
</g>
<g
   id="g6">
</g>
<g
   id="g8">
</g>
<g
   id="g10">
</g>
<g
   id="g12">
</g>
<g
   id="g14">
</g>
<g
   id="g16">
</g>
<g
   id="g18">
</g>
<g
   id="g20">
</g>
<g
   id="g22">
</g>
<g
   id="g24">
</g>
<g
   id="g26">
</g>
<g
   id="g28">
</g>
<g
   id="g30">
</g>
<g
   id="g32">
</g>
</svg>