<?xml version="1.0" encoding="UTF-8" standalone="no"?>
<!-- Generator: Adobe Illustrator 19.0.0, SVG Export Plug-In . SVG Version: 6.00 Build 0)  -->

<svg
   xmlns:dc="http://purl.org/dc/elements/1.1/"
   xmlns:cc="http://creativecommons.org/ns#"
   xmlns:rdf="http://www.w3.org/1999/02/22-rdf-syntax-ns#"
   xmlns:svg="http://www.w3.org/2000/svg"
   xmlns="http://www.w3.org/2000/svg"
   xmlns:sodipodi="http://sodipodi.sourceforge.net/DTD/sodipodi-0.dtd"
   xmlns:inkscape="http://www.inkscape.org/namespaces/inkscape"
   version="1.1"
   id="Capa_1"
   x="0px"
   y="0px"
   viewBox="0 0 512 512"
   style="enable-background:new 0 0 512 512;"
   xml:space="preserve"
   sodipodi:docname="looping_on.svg"
   inkscape:version="0.92.3 (2405546, 2018-03-11)"><metadata
   id="metadata5402"><rdf:RDF><cc:Work
       rdf:about=""><dc:format>image/svg+xml</dc:format><dc:type
         rdf:resource="http://purl.org/dc/dcmitype/StillImage" /><dc:title></dc:title></cc:Work></rdf:RDF></metadata><defs
   id="defs5400" /><sodipodi:namedview
   pagecolor="#ffffff"
   bordercolor="#666666"
   borderopacity="1"
   objecttolerance="10"
   gridtolerance="10"
   guidetolerance="10"
   inkscape:pageopacity="0"
   inkscape:pageshadow="2"
   inkscape:window-width="1675"
   inkscape:window-height="1178"
   id="namedview5398"
   showgrid="false"
   inkscape:zoom="0.921875"
   inkscape:cx="239.38656"
   inkscape:cy="117.73956"
   inkscape:window-x="1102"
   inkscape:window-y="607"
   inkscape:window-maximized="0"
   inkscape:current-layer="g5365" />
<g
   id="g5365">
	<g
   id="g5363"
   style="fill:#8db600;fill-opacity:1">
		<path
   d="M256,0C114.615,0,0,114.615,0,256s114.615,256,256,256s256-114.615,256-256S397.385,0,256,0z M118.932,357.893    L42.424,323.83l12.202-27.406l28.237,12.572c-19.212-62.905-2.879-132.984,45.134-180.997    c28.311-28.311,64.198-46.086,103.783-51.402c38.306-5.143,77.939,2.25,111.607,20.82l-14.49,26.27    c-28.076-15.488-61.147-21.647-93.123-17.357c-33.011,4.435-62.944,19.263-86.564,42.883c-40.136,40.136-53.74,98.748-37.57,151.3    l13.948-31.328l27.406,12.201L118.932,357.893z M429.137,203.006c19.212,62.905,2.879,132.984-45.134,180.997    c-28.311,28.311-64.198,46.086-103.783,51.402c-7.946,1.067-15.953,1.596-23.948,1.596c-30.546,0-60.975-7.698-87.659-22.416    l14.49-26.27c28.077,15.489,61.149,21.65,93.123,17.357c33.011-4.435,62.944-19.263,86.564-42.883    c40.136-40.136,53.74-98.748,37.57-151.3l-13.948,31.328l-27.406-12.201l34.062-76.509l76.508,34.063l-12.202,27.406    L429.137,203.006z"
   id="path5361"
   style="fill:#8db600;fill-opacity:1" />
	</g>
</g>
<g
   id="g5367">
</g>
<g
   id="g5369">
</g>
<g
   id="g5371">
</g>
<g
   id="g5373">
</g>
<g
   id="g5375">
</g>
<g
   id="g5377">
</g>
<g
   id="g5379">
</g>
<g
   id="g5381">
</g>
<g
   id="g5383">
</g>
<g
   id="g5385">
</g>
<g
   id="g5387">
</g>
<g
   id="g5389">
</g>
<g
   id="g5391">
</g>
<g
   id="g5393">
</g>
<g
   id="g5395">
</g>
</svg>