<?xml version="1.0" encoding="UTF-8" standalone="no"?>
<!-- Generator: Adobe Illustrator 16.0.0, SVG Export Plug-In . SVG Version: 6.00 Build 0)  -->

<svg
   xmlns:dc="http://purl.org/dc/elements/1.1/"
   xmlns:cc="http://creativecommons.org/ns#"
   xmlns:rdf="http://www.w3.org/1999/02/22-rdf-syntax-ns#"
   xmlns:svg="http://www.w3.org/2000/svg"
   xmlns="http://www.w3.org/2000/svg"
   xmlns:sodipodi="http://sodipodi.sourceforge.net/DTD/sodipodi-0.dtd"
   xmlns:inkscape="http://www.inkscape.org/namespaces/inkscape"
   version="1.1"
   id="Capa_1"
   x="0px"
   y="0px"
   width="510px"
   height="510px"
   viewBox="0 0 510 510"
   style="enable-background:new 0 0 510 510;"
   xml:space="preserve"
   sodipodi:docname="pause.svg"
   inkscape:version="0.92.3 (2405546, 2018-03-11)"><metadata
   id="metadata4731"><rdf:RDF><cc:Work
       rdf:about=""><dc:format>image/svg+xml</dc:format><dc:type
         rdf:resource="http://purl.org/dc/dcmitype/StillImage" /><dc:title></dc:title></cc:Work></rdf:RDF></metadata><defs
   id="defs4729" /><sodipodi:namedview
   pagecolor="#ffffff"
   bordercolor="#666666"
   borderopacity="1"
   objecttolerance="10"
   gridtolerance="10"
   guidetolerance="10"
   inkscape:pageopacity="0"
   inkscape:pageshadow="2"
   inkscape:window-width="2222"
   inkscape:window-height="1337"
   id="namedview4727"
   showgrid="false"
   inkscape:zoom="1.3088408"
   inkscape:cx="156.28046"
   inkscape:cy="287.30191"
   inkscape:window-x="523"
   inkscape:window-y="408"
   inkscape:window-maximized="0"
   inkscape:current-layer="Capa_1" />
<g
   id="g4694">
	<g
   id="pause-circle-fill">
		<path
   d="M255,0C114.75,0,0,114.75,0,255s114.75,255,255,255s255-114.75,255-255S395.25,0,255,0z M229.5,357h-51V153h51V357z     M331.5,357h-51V153h51V357z"
   id="path4691" />
	</g>
</g>
<g
   id="g4696">
</g>
<g
   id="g4698">
</g>
<g
   id="g4700">
</g>
<g
   id="g4702">
</g>
<g
   id="g4704">
</g>
<g
   id="g4706">
</g>
<g
   id="g4708">
</g>
<g
   id="g4710">
</g>
<g
   id="g4712">
</g>
<g
   id="g4714">
</g>
<g
   id="g4716">
</g>
<g
   id="g4718">
</g>
<g
   id="g4720">
</g>
<g
   id="g4722">
</g>
<g
   id="g4724">
</g>
<path
   style="fill:#8db600;fill-opacity:1;stroke-width:0.76403487"
   d="m 235.51087,508.93088 c -0.84044,-0.12375 -5.31004,-0.62486 -9.93245,-1.11358 C 185.17538,503.54557 142.0708,486.92541 107.91705,462.44973 90.670191,450.09007 69.387999,430.03348 56.763079,414.24163 27.760414,377.96372 9.8616108,336.87644 2.8437072,290.46798 0.7745414,276.78487 -0.0324751,247.94712 1.25868,233.82898 5.9619781,182.40073 24.5857,136.08677 56.827453,95.639092 65.387675,84.900184 84.85921,65.416511 95.69249,56.749818 132.6568,27.178135 175.06337,9.0373796 222.9043,2.3309323 c 12.10672,-1.69714793 48.92971,-1.95457561 61.12279,-0.4273064 48.21644,6.039451 92.6382,24.7421661 130.26794,54.8461921 10.80293,8.642408 30.27673,28.1206 38.88052,38.889274 32.14434,40.232528 50.85017,86.763648 55.55329,138.189888 1.29034,14.10921 0.48405,42.9532 -1.58326,56.639 -7.02617,46.5141 -24.8294,87.33806 -54.13113,124.12619 -7.48377,9.39581 -29.00902,30.91708 -38.3374,38.3303 -39.68706,31.53909 -84.57136,50.16089 -133.21608,55.26932 -9.65903,1.01434 -40.68691,1.51206 -45.9501,0.73709 z M 229.78061,254.94036 V 152.55969 h -25.97719 -25.97718 v 102.38067 102.38067 h 25.97718 25.97719 z m 102.38067,0 V 152.55969 H 306.1841 280.20691 v 102.38067 102.38067 h 25.97719 25.97718 z"
   id="path5278"
   inkscape:connector-curvature="0" /></svg>